<?xml version="1.0" encoding="utf-8"?>
<!-- Generator: Adobe Illustrator 19.0.0, SVG Export Plug-In . SVG Version: 6.00 Build 0)  -->
<svg version="1.1" id="Layer_1" xmlns="http://www.w3.org/2000/svg" xmlns:xlink="http://www.w3.org/1999/xlink" x="0px" y="0px"
	 viewBox="0 0 750 397.5" style="enable-background:new 0 0 750 397.5;" xml:space="preserve">
<style type="text/css">
	.st0{fill:#0089CB;}
	.st1{fill:#19AE4E;}
	.st2{fill:#EF3B3B;}
	.st3{fill:#EF58A0;}
	.st4{fill:#FFE500;}
	.st5{fill:#FFFFFF;}
	.st6{fill:#F8951D;}
</style>
<g id="XMLID_53_">
	<path id="XMLID_421_" class="st0" d="M580.7,65.9c4.6-5.5,8.9-11.2,15.4-14.6c5.8-3,12.6-4.1,19.1-2.8c6.8,1.4,12.8,5.2,17.3,10.4
		c1.4,1.6,2.6,3.4,3.8,5.2c0.9,1.5,1.9,3.6,3.7,4.3c1.4,0.5,2.7-0.5,3.5-1.5c1.4-1.6,2.4-3.6,3.6-5.3c4.1-5.7,9.7-10.4,16.6-12.4
		c6.9-2,14.5-1.2,21.1,1.3c6.8,2.6,12.4,7.5,15.7,14c1.9,3.9,3,8.2,4.2,12.4c1.3,4.8,2.5,9.6,2.9,14.5c0.4,5,0.2,10.1,0.1,15.1
		c0,5.1-0.1,10.2-0.3,15.4c-0.3,10.4-0.8,20.7-1.8,31.1c-0.2,2.5-0.5,5-0.8,7.4c-1.9,16.2-16.6,24.1-28.6,17.4
		c-7.6-4.2-9.9-12.3-10.8-20.4c-1.1-10.9-1.1-21.9-1.5-32.9c-0.2-5.4,0-11.1-1.1-16.5c-0.8-4-2.3-8.7-6.4-10.5
		c-1.7-0.8-3.4,0.1-4.8,1.1c-1.5,1.1-2.9,2.4-3.3,4.3c-1.2,5.6-2,11.3-2.6,17c-0.6,5.5-1.2,11.1-1.6,16.6
		c-0.4,5.5-0.7,11.1-1.2,16.6c-0.8,8-1.5,18.1-8.5,23.3c-5.4,4.1-13.6,4.3-19.9,2.2c-3.3-1.1-6.2-3-8.3-5.7
		c-2.5-3.1-3.8-6.9-4.7-10.8c-1.2-5.3-1.9-10.7-2.4-16.1c-0.5-5.6-1-11.3-1.3-17c-0.3-5.7-0.4-11.4-0.6-17c-0.1-2.8-0.1-5.6-0.5-8.4
		c-0.2-1.6-1.3-3.1-2.4-4.3c-0.4-0.5-0.9-1.1-1.5-1.3c-0.7-0.3-1.4,0-2.1,0.3c-1.8,0.6-3.8,1.5-5.1,2.9c-1.5,1.6-1.7,4.3-2.1,6.3
		c-0.6,2.7-1,5.5-1.4,8.2c-1.4,11-1.8,22.1-2.6,33.2c-0.4,5.4-0.8,11-2.2,16.2c-0.9,3.6-2.5,7.1-5.2,9.7c-4.8,4.9-12.5,6-18.9,4.2
		c-7.3-2.1-11.6-8.4-13.5-15.4c-1.5-5.2-2.7-10.6-3.6-16c-0.9-5.6-1.1-11.2-1-16.8c0.1-11.4,0.6-22.8,1.2-34.2
		c0.3-5.8,0.6-11.5,1-17.3c0.3-5.5,0.2-11.2,2.2-16.4c1.6-4.1,3.5-8.6,6.6-11.8c2.6-2.7,5.9-4.3,9.6-4.8c7.8-1.1,15.8,1.9,20,8.7
		C577.9,58.4,579.2,62.3,580.7,65.9C583.3,62.9,579.2,62.4,580.7,65.9z M543.5,79.4c1.6,1.9,2.9,3.5,4.2,5.1
		c0.6-1.2,1.4-2.2,1.9-3.4c0.5-1.1,0.6-2.2,0.8-3.3c0.3-1.9,0.5-3.7,0.9-5.6c0.7-3.6,2-7.2,5-9.5c0.8-0.6,1.7-1.1,2.7-1.5
		c0.9-0.4,2.2-0.5,2.8-1.2c0.4-0.5,0.9-1.3,1-2c0.1-0.9-1.1-1.6-1.7-2c-1-0.6-1.4-0.7-2.4-0.2c-1.1,0.5-2.2,1-3.3,1.5
		c-2,1-4.3,2.1-5.6,4c-1.7,2.4-2.6,5.6-3.5,8.4C545.3,72.9,544.5,76.2,543.5,79.4C545.1,81.4,545.5,73.1,543.5,79.4z M609.2,58.1
		c-5.5,0.2-10.9,3-14.7,6.9c-1.8,1.9-3.3,4-4.3,6.5c-0.4,1.1-0.9,2.4-0.9,3.5c0.1,1.5,1,2.8,1.4,4.1c1.1-0.7,2.5-1.2,3.5-2
		c0.9-0.8,1.1-2,1.6-3.1c1-2.2,2.3-4.3,4.1-5.9c1.8-1.7,3.9-2.8,6.2-3.5c1.1-0.3,2.5-0.4,3.4-1.1c1.1-0.9,1.7-2.2,2.6-3.2
		C610.9,59.2,609.6,58.3,609.2,58.1C600,58.3,609.6,58.3,609.2,58.1z M672.1,58.1c-9.6,0.3-17.7,7.1-19.6,15.7
		c-0.4,1.6,0.7,3.5,1.1,5.3c1.1-0.8,2.3-1.4,3.3-2.3c0.8-0.8,1.2-2,1.7-3c1.1-2.1,2.4-4.1,4.1-5.8c1.7-1.6,3.7-2.8,5.9-3.5
		c1.2-0.4,2.6-0.4,3.6-0.9c1.2-0.6,2-1.9,3-2.8C673.9,59.6,672.6,58.4,672.1,58.1C662.5,58.3,672.6,58.4,672.1,58.1z"/>
	<path id="XMLID_406_" class="st1" d="M209.1,62.9c1.9-1.4,3.9-2.7,5.7-4.2c1.7-1.4,3.2-2.9,4.9-4.2c3.5-2.6,7.6-4.6,11.8-5.6
		c8-2,16.5-0.6,23.4,3.8c4.3,2.8,7.8,6.5,10.5,10.9c3.3,5.3,6,11.1,7.5,17.2c0.8,3.1,1.1,6.2,1.4,9.4c0.3,3.3,0.7,6.7,0.9,10
		c1,13.3,1.3,26.8-0.1,40.1c-0.8,7.6-2,15.1-3.9,22.5c-1.6,6.4-5,13-11.4,15.6c-6.2,2.5-14.1,0.9-19.5-2.8c-2.9-2-5.1-4.8-6.6-8
		c-1.7-3.8-2-7.8-2.2-11.9c-0.7-10.8-0.7-21.6-1.1-32.4c-0.2-5.7,0.6-11.6-0.5-17.3c-1-4.9-5.2-7.6-8.3-11.2c-2.2,2-4.9,3.5-6.9,5.7
		c-2.2,2.3-2.9,5.7-3.5,8.8c-1.4,7.3-1.7,14.9-2.2,22.3c-0.5,7.7-0.9,15.5-1.7,23.1c-0.7,6.1-1.3,12.6-5.1,17.7
		c-3.2,4.4-8.3,6.9-13.7,7.3c-5.6,0.4-11.5-0.6-14.9-5.6c-2-3-2.8-6.6-3.7-10c-1.2-4.4-2.4-8.9-3.2-13.4c-1.8-9.3-1.7-18.7-1.8-28.1
		c-0.2-9.5-0.2-18.9-0.2-28.4c0-9.6,0.1-19.2,0.2-28.8c0.1-4.7,0.1-9.5,0.2-14.2c0.1-4.5,0.4-8.8,1.5-13.2c1.1-4.2,2.4-8.5,4.1-12.5
		c1.2-2.9,3-5.5,5.5-7.3c5.1-3.8,12.4-4,18.2-1.6c2.8,1.1,5.2,3,6.9,5.5c2.2,3.1,3,6.9,3.8,10.5c1,4.4,1.6,8.8,2.2,13.3
		c0.5,3.6,1.2,7.3,1.4,10.9C208.8,58.9,208.9,60.9,209.1,62.9C212.3,60.5,208.7,58.1,209.1,62.9z M175.9,51.7
		c0.8-2.4,1.5-4.9,2.4-7.3c0.9-2.4,2.1-4.8,3.2-7.1c1.1-2.4,2.3-4.7,3.5-7.1c1.2-2.2,2.8-4,4.3-6c-2.6,0.3-5.8-0.4-8.2,1
		c-1.7,1-3.1,2.8-4.1,4.5c-2.4,4.2-3.5,9.2-3.3,14C173.9,46.5,174.6,49.3,175.9,51.7C176.8,48.8,171.3,43.1,175.9,51.7z M242.2,58.4
		c-1.5-0.5-2.9-1-4.3-1.6c-0.8-0.3-1.8-0.8-2.7-0.8c-1.1,0.1-2.2,1.2-3.1,1.7c-1.5,0.9-2.9,1.9-4.3,2.9c-2.7,1.9-5.4,3.9-8,6.1
		c-1.1,0.9-1.4,1.4-1.2,2.8c0.1,1.3,0.4,2.5,0.5,3.8c2.3-1.3,4.5-2.6,6.6-4.1c2.3-1.6,4.5-3.2,6.8-4.8c1.6-1.1,3.1-2.3,4.7-3.2
		C238.9,60.2,240.6,59.3,242.2,58.4C238.1,57.1,238.6,60.5,242.2,58.4z M175.1,69.9c0.2-3,0.5-6,0.6-8.9c0-0.6,0-1.2,0.1-1.8
		c0-0.4,0.2-1.2-0.1-1.5c-0.2-0.3-1.1-0.3-1.3-0.4c-0.6-0.1-1.2-0.2-1.8-0.4c-0.2,1.7-0.4,3.4-0.6,5c-0.2,1.5-0.6,3.3-0.5,4.8
		c0,0.5,0.3,0.7,0.8,1C173.2,68.5,174.1,69.1,175.1,69.9C175.4,64.8,172.5,67.9,175.1,69.9z"/>
	<path id="XMLID_394_" class="st2" d="M95.4,136.5c-0.7,8.7-0.8,17.6-2.2,26.3c-1.1,6.5-4.5,12.3-10.7,15.2
		c-3.2,1.5-6.7,2.1-10.2,2.3c-3.3,0.2-6.8,0-10-1c-3.2-1.1-6-3-8.1-5.7c-1.2-1.6-2.2-3.4-3.1-5.2c-1.1-2-2.2-4.1-3.2-6.2
		c-1.9-4-3.5-8.2-4.4-12.6c-0.9-4.6-0.8-9.3-0.9-14c-0.3-9.8-0.4-19.6-0.4-29.5c0-9.9,0.2-19.8,0.6-29.7c0.2-4.9,0.5-9.7,0.8-14.6
		c0.2-3.5,0.6-6.9,1.3-10.3c2.4-11,8.3-21,17.9-27.2c10.3-6.7,23-8.3,35-7.5c13.1,0.9,26.7,4.3,37,12.7c11.2,9,16.3,22.6,18.4,36.5
		c2.4,15.5,0,31.3-8,44.9c-4.1,6.9-9.2,13.6-16,18c-6.3,4.2-13.8,6.4-21.3,7.2C103.8,136.7,99.6,136.5,95.4,136.5
		C94.6,146.7,97.8,136.5,95.4,136.5z M111.7,77.5c0-6.5-3.7-13-10.2-14.7c-6.1-1.6-12.5,1.3-15.4,6.8c-2.9,5.5-2.4,13.5,0.9,18.8
		c3.1,4.9,9.3,6.8,14.8,5.2C108.8,91.6,111.7,84.2,111.7,77.5C111.7,69.1,111.7,87.7,111.7,77.5z M55.4,55.3
		c0.7,0.2,1.4,0.4,2.1,0.6c1.5-2.7,3.1-5.4,4.5-8.1c1.1-2.1,2.4-4.2,3.9-6.1c2.9-3.7,6.7-6.5,11.1-8c1.3-0.4,2.6-0.5,3.7-1.5
		c1.1-1,1.8-2.2,2.9-3.2c-1.7-0.4-3.3-1.2-5.1-1.4c-1.3-0.1-2.7,0.3-4,0.6c-2.6,0.8-5.1,2.2-7.3,3.8c-4.7,3.5-8.8,8.2-11.2,13.6
		c-0.6,1.4-1.1,2.8-1.4,4.2c-0.2,0.8-0.3,1.6-0.1,2.5C54.8,53.4,55.2,54.3,55.4,55.3C56.1,55.5,55.1,53.9,55.4,55.3z M102.4,110.1
		c3.8-2.1,7.7-4.2,11.5-6.4c0.9-0.5,1.8-1,2.6-1.6c0.6-0.4,1.6-0.8,2-1.5c0.7-1.2,0.3-3,0.5-4.3c-1,0.1-1.9,0-2.9,0.1
		c-1,0.1-1.9,0.4-2.8,0.8c-2,0.8-4.1,1.7-6.1,2.6c-1.9,0.9-3.9,1.7-5.8,2.7c-1.9,0.9-3.5,2.2-5.3,3.4
		C97.9,107.1,99.6,108.2,102.4,110.1C107.8,107.1,99.6,108.2,102.4,110.1z M57.7,66.9c-1.6-2.5-2.7-4.2-3.7-5.8
		c-1,2.1-2.5,4-3.1,6.3c-0.6,2.1,1.1,3.7,1.9,5.5C54.3,71.1,55.8,69.2,57.7,66.9C56.1,64.4,55.8,69.2,57.7,66.9z"/>
	<path id="XMLID_388_" class="st3" d="M462.4,143.8c-1.4,6.6-2.5,13.3-4.4,19.8c-1.3,4.4-3.2,8.8-6.6,11.9
		c-2.9,2.7-6.6,4.1-10.6,4.3c-4.3,0.2-8.7-0.4-12.5-2.4c-3.8-2-6.6-5.3-8.5-9.2c-1.2-2.5-1.9-5.1-2.6-7.7c-0.8-3.2-1.6-6.5-2.2-9.8
		c-1.2-6.6-1.9-13.3-2.4-20.1c-0.5-6.8-0.9-13.5-1-20.3c-0.3-13.6,0.5-27.3,3.6-40.6c2-8.6,5.8-18.1,13.9-22.6
		c3.4-1.9,7.4-2.7,11.3-2.6c2.5,0.1,5,0.6,7.4,1.5c1.3,0.5,2.6,1.2,3.8,2c1.1,0.8,2.1,1.8,3.2,2.6c2,1.5,4,1.8,6.3,0.9
		c2.3-1,4.3-2.5,6.6-3.5c4-1.8,8.3-3,12.7-3.3c8.5-0.7,17.1,1.6,24.3,6.2c7.4,4.8,13,11.9,15.9,20.2c0.8,2.2,1.3,4.4,1.7,6.7
		c1.4,7.9,1.4,16.2-1.2,23.9c-2.6,7.5-7.6,13.8-13.8,18.7c-1.4,1.1-3.2,2.3-3.2,4.2c0,1.7,1.1,3.3,2,4.6c2.7,4.4,5.5,8.7,8.2,13.2
		c2.6,4.4,5.1,8.9,7.1,13.6c1.5,3.6,2.8,7.3,2.1,11.3c-1.4,8.3-9.8,12.2-17.5,11.6c-7-0.6-13.6-3.2-19.1-7.6
		c-5.3-4.3-9.6-9.8-13.3-15.5c-2.9-4.4-5.9-8.6-8.9-12.9C463.9,143.1,463.1,143.5,462.4,143.8C461.1,150,463.1,143.5,462.4,143.8z
		 M480.4,94.6c0-5.3-2.1-10.4-7.3-12.3c-5.2-1.9-11.8-0.9-15.6,3.2c-2.2,2.4-3.2,5.6-3.3,8.8c-0.1,5.8,3.2,11.2,8.9,13
		c5,1.6,11.4,0.6,14.7-3.8C479.7,101,480.4,97.8,480.4,94.6C480.4,86.2,480.4,102.9,480.4,94.6z M442.1,54.8c-3,0.6-6.2,0.5-9.1,1.6
		c-2.2,0.8-3.9,2.6-5.2,4.4c-3,4.2-4.4,9.6-4.4,14.8c0,3,0.6,6,1.9,8.8c1.8-5.5,2.7-11.6,5.9-16.5C434.4,63.1,438.5,59.1,442.1,54.8
		C437.8,55.6,436.8,61.2,442.1,54.8z M487.1,54.5c-0.9-1.1-1.7-2.5-3.1-3c-1-0.3-2.1-0.3-3.2-0.3c-2.8,0.2-5.7,1.1-8.3,2.2
		c-2,0.9-4.6,2.1-5.7,4.1c-0.7,1.2-0.9,2.9,0.5,3.6c2,1.1,4,0.1,6-0.5c2.5-0.8,5.1-1.6,7.6-2.5c1.1-0.4,2.5-0.7,3.5-1.4
		C485.4,56.2,486.2,55.2,487.1,54.5C486,53.2,485.7,55.5,487.1,54.5z M471.4,117c0,0.7,0,1.4,0.1,2.1c3.5-0.3,7.6,0.6,10.8-1.3
		c3.1-1.8,4.9-5.2,7.2-7.8c-0.9-0.8-1.8-2.2-3-2.6c-0.6-0.3-1.2,0.3-1.7,0.7c-0.9,0.6-1.8,1.2-2.7,1.7
		C478.4,112.1,474.9,114.6,471.4,117C471.4,117.7,476.3,113.7,471.4,117z"/>
	<path id="XMLID_375_" class="st4" d="M400.3,126.4c-1,9.8-1.3,19.6-2.8,29.3c-1.2,7.5-2.8,16.4-9.5,21c-5.5,3.7-12.3,2.5-17.9-0.4
		c-1.8-1-3.4-2.2-5.1-3.3c-1.5-0.9-3.5-1.1-5.1-0.9c-2.1,0.2-3.8,1.6-5.7,2.5c-2.2,1.1-4.5,2.1-6.8,2.9c-10.3,3.5-21.4,3-31.8-0.1
		c-15.1-4.5-25-18.2-26.3-34.9c-0.9-11.8,1.5-24.5,9.3-33.7c3.6-4.3,8.3-7.6,13.6-9.6c7.2-2.7,14.9-3.6,22.4-4.4
		c2.2-0.3,4.3-0.5,6.5-0.8c1-0.1,2.1-0.4,3.1-0.4c1,0,1.9,0.2,2.9,0.3c2.1,0.3,3.7,0,5.5-1.1c1.9-1.1,3.5-2.4,5.3-3.6
		c-1.1-1.6-1.9-3.3-2.9-4.9c-0.8-1.3-1.6-2.7-3.2-2.8c-5.2-0.3-10.4,0.1-15.5,0.6c-5.2,0.5-10.2,1.3-15.3,2.7
		c-4.2,1.1-8.5,2.2-12.9,1.7c-3.5-0.3-6.9-1.8-9.2-4.5c-2.5-3-3.9-7.4-4.1-11.3c-0.2-3.9,1-7.8,3.7-10.6c3.2-3.4,7.2-6.5,11.1-9
		c4.1-2.5,8.3-3.9,13-4.9c5-1.1,10.1-1.8,15.2-2.1c8.4-0.5,16.9,0,25,2.4C375.5,50.4,386.1,59,392,71c3.2,6.5,5,13.6,5.8,20.7
		c1.1,9,1.5,18.1,2,27.1C400,121.3,400.1,123.9,400.3,126.4C399.2,136.8,399.4,112.5,400.3,126.4z M341.1,123.5
		c-5.3,0.1-10.9,3-13.5,7.8c-2.4,4.5-0.8,9.8,3.5,12.5c8.3,5.2,23.8-1.7,22-12.5C352.2,125.5,346.3,123.4,341.1,123.5z M303.2,121.1
		c5-2.9,10-5.8,15-8.7c2.3-1.3,4.6-2.7,6.9-4.1c0.9-0.6,2.2-1.1,2.8-2c0.6-0.9,0.8-2,1.3-3c-1.6-0.6-2.7-1.7-4.5-1.4
		c-1.5,0.3-2.9,0.7-4.4,1.1c-2.7,0.9-5.4,2.1-7.8,3.7c-2.4,1.6-4.6,3.6-6.4,5.8c-0.9,1.1-2,2.3-2.6,3.6
		C302.9,117.8,303.3,119.5,303.2,121.1C312.1,115.9,303.4,119.3,303.2,121.1z M304.3,71.4c0.7-0.2,1.4-0.3,2-0.5
		c0.6-0.2,1.1-0.6,1.6-1c1.7-1.3,3.5-2.5,5.2-3.8c1.8-1.3,3.5-2.6,5.3-3.9c0.8-0.6,1.6-1.3,2.5-1.9c0.7-0.5,1.5-1,1.9-1.7
		c0.6-1.1,0.7-2.6-0.3-3.4c-0.5-0.4-1-0.7-1.6-0.8c-0.8-0.2-1.2,0.3-1.8,0.7c-3.5,2.4-7.1,4.9-10.5,7.5c-1,0.7-1.9,1.5-2.9,2.2
		c-0.6,0.5-1.9,1.1-2.1,1.9c-0.2,0.6,0.1,1.4,0.2,2C303.8,69.6,304.1,70.5,304.3,71.4C306,70.9,304,69.6,304.3,71.4z M340.1,155.4
		c3.9,2.6,8.7,2.5,12.8,0.5c2.2-1.1,4.5-2.8,6-4.7c1.6-2.1,2-4.8,3-7.2c-0.5-0.1-1-0.2-1.5-0.2c-0.6,0-1,0.3-1.5,0.6
		c-0.8,0.5-1.7,1-2.5,1.5c-1.8,1.1-3.6,2.1-5.4,3.2C347.5,151.1,343.8,153.2,340.1,155.4C345.6,159.1,347.2,151.2,340.1,155.4z
		 M341.8,51.6c-3.1,0-6.2-0.1-9.2,0c-0.6,0-1.2,0-1.8,0.1c-0.4,0-1.3-0.1-1.6,0.1c-0.7,0.5-0.7,2.5-0.9,3.2c1.7,0.1,3.4,0.3,5.1,0.4
		c0.9,0.1,1.7,0.1,2.6,0.1c0.6,0,1.6,0.2,2.2,0c0.5-0.1,0.9-0.7,1.2-1.1C340.2,53.5,341,52.5,341.8,51.6
		C336.4,51.6,339.5,54.2,341.8,51.6z"/>
	<path id="XMLID_363_" class="st5" d="M543.5,79.4c2-6.3,3.1-12.6,6-17.8c1.7-3,6.4-4.5,10-6.2c0.7-0.3,2.6,1.1,3.4,2.1
		c0.3,0.4-0.8,2.7-1.6,2.9c-10.2,2.7-9.7,11.4-11.1,19.1c-0.3,1.7-1.6,3.2-2.4,4.9C546.4,82.9,545.1,81.4,543.5,79.4z"/>
	<path id="XMLID_362_" class="st5" d="M609.2,58.1c0.4,0.3,1.7,1.2,3,2.1c-1.2,1.3-2.2,3.4-3.6,3.7c-7.1,1.3-11.3,5.4-13.6,12.2
		c-0.5,1.3-2.8,2-4.3,3c-0.5-1.6-1.6-3.2-1.4-4.7C590.7,66.3,600,58.3,609.2,58.1z"/>
	<path id="XMLID_361_" class="st5" d="M672.1,58.1c0.5,0.4,1.8,1.5,3.2,2.7c-1.2,1-2.4,2.8-3.7,3c-7.3,1.1-11.3,5.5-13.9,12
		c-0.6,1.4-2.7,2.2-4,3.3c-0.4-1.8-1.4-3.7-1.1-5.3C654.4,65.2,662.5,58.3,672.1,58.1z"/>
	<path id="XMLID_354_" class="st5" d="M175.9,51.7c-4.6-8.7-1.1-22.4,5.2-26.5c2.1-1.4,5.5-0.8,8.3-1.1c-1.3,1.8-2.9,3.4-3.9,5.3
		c-2.3,4.4-4.5,8.9-6.5,13.5C177.6,45.9,176.8,48.8,175.9,51.7z"/>
	<path id="XMLID_353_" class="st5" d="M242.2,58.4c-3.6,2.1-5.1,2.8-6.4,3.7c-4,2.8-8,5.7-12.1,8.5c-1.5,1-3.1,1.9-4.7,2.8
		c-0.1-2-1.1-5.1-0.1-5.9c4.9-4.1,10.2-7.9,15.7-11.2C235.7,55.5,238.1,57.1,242.2,58.4z"/>
	<path id="XMLID_352_" class="st5" d="M175.1,69.9c-2.6-2-3.7-2.5-3.6-2.9c0.2-3.4,0.7-6.7,1.1-10.1c1.1,0.3,3.2,0.6,3.2,0.8
		C175.7,61.3,175.4,64.8,175.1,69.9z"/>
	<path id="XMLID_346_" class="st5" d="M55.4,55.3c-0.3-1.4-1.1-2.8-0.9-4.1C55.9,41,67.5,29,77.4,27.7c2-0.2,4.1,0.9,6.2,1.4
		c-1.4,1.4-2.7,3.7-4.3,4.1c-8.9,2-14,8.1-17.8,15.8c-1.2,2.4-2.6,4.6-3.9,7C56.9,55.7,56.1,55.5,55.4,55.3z"/>
	<path id="XMLID_345_" class="st5" d="M102.4,110.1c-2.8-1.9-4.5-3-6.2-4.1c1.7-1.1,3.3-2.4,5.1-3.3c4.3-2.1,8.7-4,13.1-5.8
		c1.4-0.6,3.1-0.4,4.7-0.5c-0.3,1.6,0,4.1-0.9,4.7C113.2,104.4,107.8,107.1,102.4,110.1z"/>
	<path id="XMLID_344_" class="st5" d="M57.7,66.9c-1.9,2.3-3.4,4.1-4.9,6c-0.8-1.6-2.3-3.4-2.1-4.9c0.5-2.4,2.1-4.7,3.3-7
		C55,62.7,56.1,64.4,57.7,66.9z"/>
	<path id="XMLID_342_" class="st5" d="M442.1,54.8c-5.3,6.4-9.2,10-11.7,14.4c-2.3,4-3.1,8.9-5.1,15.2c-4.4-9.4-0.7-22.9,6.3-27.3
		C434.2,55.4,437.8,55.6,442.1,54.8z"/>
	<path id="XMLID_341_" class="st5" d="M487.1,54.5c-1.3,1.1-2.3,2.3-3.4,2.7c-4.5,1.6-9.1,3.1-13.7,4.4c-1,0.3-2.5-0.2-3.3-0.9
		c-0.5-0.4-0.3-2,0-2.9c1.6-4,14.5-8.3,18-6C485.5,52.3,486,53.2,487.1,54.5z"/>
	<path id="XMLID_340_" class="st5" d="M471.4,117c4.9-3.3,9.6-6.7,14.6-9.7c0.4-0.3,2.2,1.8,3.4,2.7c-2.5,2.8-4.5,6.4-7.6,8.1
		c-2.9,1.5-6.9,0.8-10.4,1.1C471.4,118.4,471.4,117.7,471.4,117z"/>
	<path id="XMLID_334_" class="st5" d="M303.2,121.1c0.2-1.7-0.3-3.9,0.6-5.3c5.1-7.8,12.4-12.3,21.5-13.9c1.2-0.2,2.6,1,3.9,1.5
		c-0.6,1.2-0.9,3-1.9,3.6C319.7,111.6,312.1,115.9,303.2,121.1z"/>
	<path id="XMLID_333_" class="st5" d="M304.3,71.4c-0.3-1.8-1.3-4.5-0.6-5c5.3-4.3,10.8-8.2,16.4-12c0.5-0.3,2.6,0.7,2.9,1.5
		c0.4,0.9,0,2.8-0.8,3.4c-5,3.9-10.1,7.6-15.2,11.4C306.6,70.9,306,70.9,304.3,71.4z"/>
	<path id="XMLID_332_" class="st5" d="M340.1,155.4c7.1-4.2,13.6-8,20-11.8c0.6,0.1,1.3,0.2,1.9,0.3c-1.1,2.6-1.6,5.7-3.4,7.6
		C353.1,157.6,345.6,159.1,340.1,155.4z"/>
	<path id="XMLID_331_" class="st5" d="M341.8,51.6c-2.4,2.6-3,3.9-3.7,3.9c-3.3,0-6.6-0.3-9.9-0.6c0.3-1.1,0.6-3.2,1-3.2
		C332.8,51.5,336.4,51.6,341.8,51.6z"/>
</g>
<g id="XMLID_54_">
	<path id="XMLID_416_" class="st1" d="M663.8,257.2c2-1.6,3.9-3.1,5.8-4.8c1.5-1.3,3-2.6,4.7-3.7c3.2-2.1,6.7-3.7,10.3-4.6
		c7-1.7,14.4-0.9,20.7,2.5c3.9,2.1,7.2,5.1,9.8,8.6c3.8,5,7,10.6,9.2,16.5c1.1,2.9,1.9,5.8,2.4,8.8c0.6,3.3,0.8,6.7,1,10.1
		c1.2,14,1.7,28.1,0.6,42.1c-0.6,8-1.8,15.9-3.7,23.7c-1.4,5.7-3.8,11.8-8.7,15.4c-4.3,3.2-9.8,3.6-15,2.4c-6.3-1.4-11.7-5-14.3-11
		c-1.4-3.1-1.9-6.4-2.1-9.8c-0.4-4.7-0.6-9.5-0.8-14.2c-0.3-9.4-0.5-18.9-0.6-28.3c0-4.1,0-8.3-0.8-12.3c-0.5-2.6-1.4-5.5-3.8-7
		c-2.7-1.7-5.9-0.6-8.2,1.3c-2.9,2.3-4.8,5.3-5.8,8.8c-1.2,4.1-1.5,8.4-1.8,12.6c-0.4,4.6-0.7,9.2-1,13.9c-0.6,9.3-1,18.7-2.4,28
		c-1,6.3-3.3,12.6-8.9,16.2c-4.9,3.2-11.6,3.9-17.1,2.2c-2.7-0.8-5.1-2.5-6.8-4.8c-2.2-3-2.9-6.8-3.9-10.4c-1.2-4.5-2.4-9-3.3-13.6
		c-0.9-4.6-1.2-9.1-1.4-13.8c-0.2-9.6-0.4-19.2-0.4-28.7c-0.1-19.2,0-38.3,0.3-57.5c0.1-4.6,0.4-8.9,1.6-13.4
		c1.1-4.1,2.5-8.3,4.3-12c2.8-5.9,8.2-9.6,14.8-9.7c6.3-0.1,12.7,2.3,16.1,7.8c2,3.2,2.8,7.2,3.5,10.9c0.9,4.5,1.5,9,2.1,13.5
		c0.3,2.1,0.7,4.3,0.9,6.4c0.3,2.3,0.2,4.7,0.4,7C662.3,256.6,663.1,256.9,663.8,257.2C665.5,255.8,663.1,256.9,663.8,257.2z
		 M628.7,247.1c0.9-2.5,1.6-5,2.5-7.5c1-2.4,2.1-4.8,3.2-7.2c1.1-2.4,2.3-4.8,3.5-7.1c1.1-2.1,2.8-3.8,4.2-5.6
		c-2.8,0.3-6.1-0.4-8.2,1C627.7,224.6,624.2,238.3,628.7,247.1C629.7,244.3,624.2,238.3,628.7,247.1z M689.6,251.4
		c-7.4,0-16.8,6.7-18.5,12.6c-0.4,1.4,0.5,3.2,0.7,4.8c1.2-0.5,2.5-0.9,3.7-1.5c1.3-0.7,2.4-1.6,3.6-2.4c2.4-1.7,4.7-3.3,7-5.1
		c1.9-1.4,4.5-2.8,5.7-4.9C692.9,253,690.7,252.3,689.6,251.4C682.2,251.3,690,251.7,689.6,251.4z M627.8,265.4
		c0.4-5,0.8-8.6,0.8-12.1c0-0.3-2.1-0.6-3.2-0.9c-0.2,1.7-0.4,3.3-0.7,5c-0.2,1.5-0.7,3.3-0.5,4.8c0,0.5,0.3,0.7,0.7,1
		C626,263.9,626.9,264.6,627.8,265.4C628.2,260.3,625.3,263.3,627.8,265.4z"/>
	<path id="XMLID_411_" class="st4" d="M188,258.3c1.9-1.4,3.9-2.7,5.7-4.2c1.7-1.4,3.2-2.9,4.9-4.2c3.5-2.6,7.6-4.5,11.8-5.6
		c8-2,16.5-0.6,23.4,3.8c4.3,2.8,7.8,6.6,10.4,10.9c3.2,5.2,5.9,10.8,7.6,16.7c1.7,6.1,1.8,12.6,2.2,18.9c0.9,13.2,1.2,26.6,0,39.8
		c-0.7,7.5-1.8,14.9-3.5,22.3c-1.6,6.6-4.8,13.6-11.2,16.6c-6.1,2.9-14,1.5-19.6-2c-3.1-1.9-5.5-4.7-7-7.9c-1.8-3.8-2.1-7.9-2.4-12
		c-0.8-11-0.9-22.1-1.1-33.2c-0.1-5.7,0.8-11.6-0.7-17.1c-0.6-2.2-1.6-4.4-2.9-6.3c-1.1-1.6-2.6-3.4-4.5-4.1
		c-4.5-1.5-7.7,1.8-9.1,5.8c-0.9,2.4-1.3,5-1.7,7.5c-0.5,3.3-0.8,6.6-1,10c-0.5,6.6-1.1,13.1-1.5,19.7c-0.4,6.6-0.9,13.2-1.9,19.8
		c-0.7,5-1.7,10.1-4.7,14.3c-2.3,3.2-5.6,5.5-9.4,6.6c-4.1,1.2-8.9,1.3-12.9-0.2c-4.1-1.4-7-4.6-8.3-8.7c-1.9-6.2-3.6-12.7-4.8-19.1
		c-1.3-6.6-1.6-13.2-1.7-19.9c-0.3-13.6-0.4-27.3-0.4-40.9c0-13.7,0.2-27.4,0.5-41.1c0.1-6.5,1.7-12.7,3.9-18.8
		c1.6-4.6,3.4-9.2,7.6-12.2c7.2-5.1,18.9-3.5,24.3,3.5c1.5,1.9,2.4,4.1,3,6.4c0.9,3.1,1.5,6.2,2.1,9.4c0.5,3.2,1,6.4,1.5,9.6
		c0.4,2.7,0.9,5.4,1.1,8.1C187.7,253.1,187.8,255.7,188,258.3C191.3,255.9,187.6,253.5,188,258.3z M154.8,247.1
		c0.8-2.4,1.4-4.8,2.3-7.2c0.9-2.4,2.2-4.7,3.4-7c2.4-4.6,4.9-9.1,7.7-13.4c-2.4,0.1-5.1-0.6-7,0.3
		C154.2,223.4,149.9,237.9,154.8,247.1C155.8,244.2,149.9,237.9,154.8,247.1z M198,270.2c0.9-0.6,1.8-1.1,2.7-1.7
		c0.7-0.5,1-1,1.3-1.6c1-1.8,2.2-3.4,3.7-4.8c2.8-2.8,6.4-4.5,10.3-5.1c0.8-0.1,1.1-0.3,1.5-1c0.4-0.6,0.8-1.5,0.7-2.3
		c-0.2-1.7-2.9-2.3-4.3-2.3c-3.5,0.1-7,2-9.7,4c-3,2.1-6.4,5.3-7.3,9C196.6,265.9,197.5,267.7,198,270.2
		C200,268.8,197.5,267.7,198,270.2z M148.5,257.9c1.6,2.3,2.7,4,3.8,5.7c1-2.2,2.6-4.2,3.1-6.5c0.4-2-1.7-3.5-2.7-5
		C151.4,253.9,150.1,255.7,148.5,257.9C150.1,260.3,150.1,255.7,148.5,257.9z"/>
	<path id="XMLID_400_" class="st3" d="M74.2,332c-0.5,6.9-0.7,13.7-1.4,20.6c-0.6,5.3-1.3,10.7-4.5,15.2c-2.8,3.9-7.1,6.3-11.8,7.3
		c-5,1.1-10.5,1.2-15.4-0.4c-5.2-1.7-8.7-5.4-11.2-10.2c-3.1-6.1-6.2-12.3-7.6-19.1c-0.7-3.5-0.8-6.9-0.9-10.5
		c-0.1-3.7-0.2-7.4-0.3-11.1c-0.1-7.5-0.2-14.9-0.2-22.4c0-14.9,0.4-29.8,1.5-44.6c0.6-9.1,2.7-18.2,7.8-25.9
		c4.6-6.9,11.2-12,18.8-15.1c9-3.6,18.9-4.3,28.5-3.6c10,0.8,20.1,3,29,7.9c8.5,4.6,15.3,11.7,19.5,20.5c1.1,2.4,2.1,4.8,2.9,7.3
		c7.9,25.1,5,49.2-13,69.6c-7.8,8.9-18.9,13.2-30.5,14.2C81.8,332.1,78,332,74.2,332C73.5,341.5,76.7,332,74.2,332z M76.8,289.6
		c8.4,0,14.1-7.1,13.8-17.1c-0.2-6-3.5-12.1-9.5-14c-5.5-1.8-12,0.3-15.3,5.1c-2,2.8-2.8,6.3-2.7,9.8
		C63.5,283.6,68.5,289.6,76.8,289.6C85.2,289.5,68.5,289.6,76.8,289.6z M63.1,225.5c-0.3-0.8-0.7-1.6-1-2.4
		c-5.9-1-11.6,0.7-16.2,4.4c-2.3,1.9-4.2,4.1-6,6.4c-1.8,2.2-3.5,4.4-4.6,7c-1.4,3.2-1.3,6.7,0,9.9c4.3-4.9,6.9-11,11.6-15.5
		C51.4,230.9,57.6,228.7,63.1,225.5C62.7,224.8,57.6,228.7,63.1,225.5z M81.5,305.5c3.8-2.1,7.7-4.2,11.4-6.4c0.9-0.5,1.8-1,2.6-1.6
		c0.6-0.4,1.6-0.8,2-1.5c0.6-1.2,0.2-3,0.4-4.3c-1,0.1-1.9,0.1-2.9,0.2c-1,0.1-1.9,0.5-2.9,0.8c-2.1,0.8-4.2,1.7-6.3,2.6
		c-2,0.9-4,1.8-6,2.7c-1.8,0.9-3.2,2.2-4.8,3.3C76.9,302.6,78.6,303.7,81.5,305.5C86.8,302.5,78.6,303.7,81.5,305.5z M33.8,256.6
		c-0.9-0.1-1.9-0.2-2.8-0.3c-0.3,2.8-0.7,5.6-0.9,8.4c-0.1,0.9-0.5,2.2,0.4,2.7c0.8,0.4,1.8,0.5,2.6,0.9c0.5-2.2,0.9-4.4,1.4-6.6
		c0.2-1,0.7-2.3,0.6-3.2C35,257.6,34.2,257.1,33.8,256.6C32.9,256.5,34.3,257.2,33.8,256.6z"/>
	<path id="XMLID_382_" class="st2" d="M319.3,337.2c-1.5,6.2-2.9,12.4-4.5,18.5c-1.3,4.9-2.5,10.1-5.9,14.1c-3.4,3.9-8,5.4-13.1,5.5
		c-4.9,0-10.1-1-14-4.1c-4.7-3.7-6.8-9.9-8.6-15.4c-2.2-6.8-2.9-13.8-3.7-20.9c-1.6-14.4-2.4-28.9-1.6-43.4
		c0.4-7.3,1.3-14.5,2.7-21.6c1.3-6.7,3.5-12.9,7-18.8c0.9-1.4,1.8-2.7,2.8-4c5.1-6.7,14.1-9.1,21.9-6.4c1.9,0.7,3.8,1.6,5.4,2.9
		c1.8,1.3,3.2,3.3,5.4,4c2,0.6,4-0.4,5.7-1.4c1.8-1.1,3.6-2.1,5.5-2.9c14.1-6,30.7-2.9,41.8,7.6c6.5,6.1,10.7,14.3,12.1,23.1
		c1.8,10.9,0.8,22.3-5.4,31.7c-1.5,2.3-3.3,4.5-5.2,6.4c-1,1-2.1,2-3.2,2.9c-1.1,1-2.5,1.8-3.4,2.9c-1.7,2.1-0.6,4.3,0.6,6.4
		c1.9,3.1,3.8,6.1,5.7,9.2c4.2,6.9,8.3,13.9,11.3,21.4c1.8,4.8,1.3,10.2-2,14.1c-3.4,4.1-8.9,5.8-14.1,5.6
		c-12.9-0.5-23.1-9-30.1-19.3c-2.2-3.3-4.2-6.7-6.5-9.8C324,342.4,321.6,339.9,319.3,337.2C316.8,347.2,322.3,340.8,319.3,337.2z
		 M336.5,290c0-5.3-2.1-10.4-7.3-12.3c-5.2-1.9-11.8-0.9-15.6,3.3c-2.2,2.4-3.2,5.6-3.3,8.8c-0.1,5.8,3.3,11.2,8.9,13
		c5,1.6,11.5,0.5,14.8-3.9C335.9,296.3,336.5,293.1,336.5,290z M279.8,277.3c0.8,0.3,1.6,0.5,2.4,0.8c1.7-5.5,2.4-11.3,5.9-16.1
		c3.1-4.3,7.4-7.8,11-11.8c-4.9,0.8-8.3,0.5-10.7,1.9C281.4,256,277.4,268.9,279.8,277.3C280.6,277.5,277.4,268.9,279.8,277.3z
		 M323.1,257.1c4.4-1.2,8.9-2.3,13.3-3.5c1.7-0.5,4.1-0.7,5.3-2.2c0.4-0.6,0.9-1.4,0.8-2.1c-0.1-0.7-0.8-1.5-1.4-1.9
		C335.9,243.8,323.6,250.3,323.1,257.1C329.2,255.5,323.6,250.3,323.1,257.1z M327.2,312.6c4.4,2.9,10.7,2.1,14.7-1.1
		c1.8-1.4,3.7-3.9,3.4-6.4c-0.2-1.5-0.9-2.6-2.5-2.6c-1.5,0-3,1.5-4.3,2.3C334.8,307.4,331,310,327.2,312.6
		C333.6,316.8,332.4,309.1,327.2,312.6z"/>
	<path id="XMLID_369_" class="st6" d="M386.7,307.9c1.3-10.2,1.5-17.5,3.2-24.5c8.7-37.5,51.6-56,85.4-36.9
		c15.9,9,19.1,24,18.1,40.7c-0.5,8.7-4.1,17-11.1,22.4c-3.8,2.9-8.1,4.7-12.6,6.1c-5.9,1.8-11.9,2.9-18,3.9c-3.1,0.5-6.2,1-9.3,1.5
		c-1.8,0.3-3.6,0.4-5.4,0.8c-1.6,0.4-3.2,1.1-4,2.7c-1,1.8-0.9,4.3-0.5,6.2c2.5,11.8,18.5,5.8,25.9,3.4c2.9-0.9,5.3-2.7,7.8-4.2
		c2.7-1.7,5.8-2.8,9-3.2c5.4-0.8,11.2,0.4,15,4.4c4.8,5,5.6,13.7,1.2,21.7c-7.3,13.3-19.1,19.5-33.8,21.8
		c-13.9,2.2-28.8,1.1-41.4-5.8c-5.6-3.1-10.5-7.2-14.5-12.2c-4.4-5.6-7.4-12.1-9.4-19C389.5,327.9,388.6,317.8,386.7,307.9
		C388,297.6,388.5,317,386.7,307.9z M453.1,283.9c0-4.6-2.9-8.3-7.2-9.7c-5-1.5-10.7-0.1-14.5,3.6c-3.5,3.5-4.5,8.6-1.6,12.8
		c3,4.2,8.6,5.8,13.5,4.6C448.6,293.9,453.1,289.4,453.1,283.9C453.2,277.9,453.1,290.2,453.1,283.9z M439.8,250.4
		c-1.8-0.4-3.6-1.1-5.4-1.5c-1.5-0.3-3,0.2-4.5,0.6c-3.6,1-7.1,2.4-10.3,4.3c-6.2,3.6-11.4,8.8-15.1,14.9c-1.1,1.8-2.1,3.7-3,5.6
		c-0.5,1-0.8,1.8-0.6,2.9c0.2,1.2,0.6,2.4,0.8,3.6c1.3-0.8,3.3-1.1,4.3-2.3c0.5-0.6,0.7-1.4,1-2.1c0.4-0.9,0.9-1.7,1.3-2.6
		c1.7-2.9,3.6-5.7,6-8.1c4.6-4.8,10.5-8.3,16.8-10.3c1.4-0.5,3.1-0.7,4.3-1.5C436.9,252.8,438.3,251.5,439.8,250.4
		C436,249.5,436.5,252.8,439.8,250.4z M443.2,304.8c2.5,1.2,5.4,1.8,8.1,1c2.2-0.6,4.1-2,5.8-3.5c1.7-1.5,3.6-3.2,4.9-5.1
		c1.6-2.4,1.2-4.8-1.1-6.6C454.9,295.3,449.5,299.7,443.2,304.8C451.1,308.5,449.5,299.7,443.2,304.8z M461.5,344.1
		c0.8,0.5,1.5,1,2.3,1.5c3.9-1.5,7.8-3,11.6-4.6c0.9-0.4,1.9-0.8,2.8-1.2c0.6-0.3,1.2-0.3,1.3-1c0.3-1.3-0.2-2.8-0.2-4.2
		c-3.8,0.9-7.6,1.3-11.3,2.7c-1.6,0.6-2.7,1.4-3.7,2.7C463.4,341.3,462.6,342.8,461.5,344.1C462.3,344.6,463.3,341.9,461.5,344.1z"
		/>
	<path id="XMLID_364_" class="st0" d="M557.4,377.8c-9.9-0.3-19.9-1.2-29.2-4.4c-8.4-2.9-17.3-7.7-21.9-15.6c-2.5-4.2-3.5-9.1-3-14
		c1.2-12.5,12.8-19.6,26-16c5.3,1.5,10.1,4.3,15,6.8c2.5,1.3,5,2.5,7.5,3.7c2.4,1.2,4.8,2.3,7.4,2.9c1.9,0.4,4-0.2,5.5-1.3
		c1.6-1.2,1.7-2.9,1.4-4.7c-0.9-4.7-6.1-7.1-9.9-9.2c-9.9-5.2-20.3-9.6-30.1-15c-8.3-4.6-16.3-10.2-20.5-19.1
		c-4.1-8.8-3.3-18.8,0.7-27.5c2.5-5.4,5.9-10.5,10.5-14.3c5.2-4.3,11.6-6.4,18-8.1c14.3-3.6,29.3-3.1,43.3,1.7
		c6.2,2.1,12.8,4.8,17.5,9.5c4.1,4.1,6.7,9.6,7.3,15.3c0.5,5-0.5,10.2-3.5,14.3c-2.9,3.9-7.4,6.4-12.2,7.1
		c-6.7,0.9-12.8-1.8-18.7-4.7c-2.7-1.3-4.8-4.1-7.8-4.6c-2.6-0.5-5.5-0.4-8,0.2c-1,0.3-2,0.7-2.7,1.5c-1.6,2.2-1.4,4.8,0.4,6.8
		c2,2.3,5.2,3.3,7.9,4.5c6.3,2.7,12.7,5.2,19,8c9.3,4.3,18.7,9.6,24.4,18.4c3.1,4.9,4.8,10.5,5.1,16.2c0.5,9-1.3,18.3-6.7,25.6
		c-5.4,7.3-13.6,11.7-22.3,13.8C570.9,377.2,564.2,377.3,557.4,377.8C540.8,377.3,560.9,377.6,557.4,377.8z M546.3,249.5
		c-1.5-0.8-3.1-2.1-4.7-2.6c-1.3-0.4-2.9-0.2-4.3,0c-3.4,0.5-6.6,1.8-9.6,3.4c-6.2,3.5-11.9,8.7-15.1,15c-0.8,1.6-1.4,3.2-1.8,4.9
		c-0.2,0.9-0.4,1.9-0.1,2.8c0.4,1.2,1.3,2.2,1.9,3.3c1.1-0.8,2.8-1.3,3.5-2.5c0.4-0.6,0.4-1.5,0.7-2.2c0.2-0.8,0.5-1.6,0.8-2.4
		c1.1-2.7,2.6-5.3,4.5-7.5c3.7-4.3,8.9-6.9,14.4-8.3c1.5-0.4,3.3-0.5,4.7-1.1C543.1,251.7,544.6,250.5,546.3,249.5
		C543.5,248.1,543.5,251.1,546.3,249.5z M530.1,339.4c1-0.5,3-1,3.2-2.2c0.2-1-1-2.8-1.8-3.3c-6.6-4.4-17.5-0.8-20.1,6.7
		c-0.5,1.4,0.2,3.2,0.3,4.8c1-0.3,2-0.4,3-0.7c1-0.3,1.3-0.6,1.7-1.5c0.7-1.6,1.8-3.1,3.3-4C522.9,337.4,526.9,338.4,530.1,339.4
		C530.7,339,523.4,337.3,530.1,339.4z M558.1,350.7c6.6,4.3,15.5,1.8,17-4.3c0.2-1-2.4-3.8-2.6-3.6
		C567.9,345.1,563.4,347.7,558.1,350.7C564.7,355,563.4,347.7,558.1,350.7z"/>
	<path id="XMLID_360_" class="st5" d="M628.7,247.1c-4.5-8.8-1-22.5,5.3-26.4c2.1-1.3,5.5-0.7,8.2-1c-1.4,1.8-3,3.4-4,5.3
		c-2.3,4.4-4.5,9-6.5,13.6C630.5,241.3,629.7,244.3,628.7,247.1z"/>
	<path id="XMLID_359_" class="st5" d="M689.6,251.4c0.4,0.3,2.5,1.3,2.5,2.4c0,1.2-1.6,2.6-2.8,3.6c-4.3,3.3-8.7,6.4-13.1,9.4
		c-1.3,0.9-2.9,1.3-4.4,2c-0.3-1.6-1.2-3.4-0.7-4.8C672.8,258,682.2,251.3,689.6,251.4z"/>
	<path id="XMLID_358_" class="st5" d="M627.8,265.4c-2.5-2.1-3.6-2.6-3.6-3c0.3-3.4,0.8-6.7,1.2-10c1.1,0.3,3.2,0.6,3.2,0.9
		C628.6,256.8,628.2,260.3,627.8,265.4z"/>
	<path id="XMLID_357_" class="st5" d="M154.8,247.1c-5-9.2-0.7-23.7,6.3-27.2c1.9-1,4.7-0.3,7-0.3c-1.1,1.7-2.2,3.3-3.2,5
		c-2.5,4.6-5,9.1-7.3,13.9C156.5,241.2,155.8,244.2,154.8,247.1z"/>
	<path id="XMLID_356_" class="st5" d="M198,270.2c-0.5-2.6-1.4-4.4-1-5.9c1.3-5.9,11.6-13.4,17.7-12.9c1.3,0.1,3.1,1,3.5,2
		c0.3,0.9-0.8,3.4-1.6,3.5c-7,0.8-11.7,4.7-15,10.7C201.1,268.4,200,268.8,198,270.2z"/>
	<path id="XMLID_355_" class="st5" d="M148.5,257.9c1.6-2.2,2.9-4.1,4.2-5.9c1,1.5,3,3.2,2.8,4.5c-0.4,2.4-2,4.7-3.2,7
		C151.2,261.9,150.1,260.3,148.5,257.9z"/>
	<path id="XMLID_350_" class="st5" d="M63.1,225.5c-5.5,3.2-11.8,5.5-16.3,9.8c-4.5,4.3-7.3,10.5-11.6,15.5
		c-3.2-8,1.9-13.5,6.1-18.7c5.3-6.5,12.2-10.5,20.8-9C62.4,224,62.7,224.8,63.1,225.5z"/>
	<path id="XMLID_349_" class="st5" d="M81.5,305.5c-2.9-1.8-4.7-2.9-6.4-4c1.7-1.1,3.2-2.5,5-3.4c4.3-2.1,8.7-4,13.1-5.7
		c1.4-0.6,3.1-0.4,4.7-0.6c-0.2,1.6,0.1,4.1-0.8,4.7C92.1,299.7,86.8,302.5,81.5,305.5z"/>
	<path id="XMLID_348_" class="st5" d="M34.5,255c0.5,0.7,1.6,1.5,1.5,2.1c-0.5,3-1.1,6-1.7,9c-0.4,1.9-2.6,3.1-4.3,2.1
		c-0.2-0.1-0.3-0.2-0.3-0.3c0.1-3.3,0.5-6.6,0.9-9.9C30.8,256.2,32.6,254.8,34.5,255L34.5,255z"/>
	<path id="XMLID_338_" class="st5" d="M279.8,277.3c-2.4-8.4,1.5-21.2,8.4-25.2c2.4-1.4,5.8-1.1,10.7-1.9
		c-5.4,5.9-9.6,9.2-12.1,13.5c-2.5,4.3-3.2,9.5-4.7,14.3C281.4,277.8,280.6,277.5,279.8,277.3z"/>
	<path id="XMLID_337_" class="st5" d="M323.1,257.1c0.5-6.8,12.9-13.2,18-9.7c0.7,0.5,1.5,1.8,1.4,2.4c-0.2,1-1.2,2.4-2.1,2.6
		C334.8,254.1,329.2,255.5,323.1,257.1z"/>
	<path id="XMLID_336_" class="st5" d="M327.2,312.6c5.2-3.5,9.8-6.8,14.5-9.8c0.6-0.4,2.3-0.2,2.7,0.3c0.6,0.9,1.1,2.3,0.8,3.4
		C343.8,313.2,333.6,316.8,327.2,312.6z"/>
	<path id="XMLID_329_" class="st5" d="M439.8,250.4c-3.3,2.4-4.4,3.8-5.8,4.2c-13.1,3.4-22.3,11-27.8,23.4c-0.6,1.3-3,1.9-4.6,2.8
		c-0.3-1.8-1.3-4-0.6-5.4c6.2-14,16.7-23.2,31.8-26.5C434.2,248.6,436,249.5,439.8,250.4z"/>
	<path id="XMLID_328_" class="st5" d="M443.2,304.8c6.3-5.1,11.7-9.5,17.6-14.2c4.3,3.4,1.4,6.7-1.1,9.2
		C455.5,303.8,451.1,308.5,443.2,304.8z"/>
	<path id="XMLID_327_" class="st5" d="M461.5,344.1c1.8-2.2,3.1-5.3,5.4-6.3c3.8-1.7,8.2-2.2,12.4-3.1c0,1.6,0.5,4.4-0.1,4.7
		c-5,2.4-10.3,4.2-15.4,6.3C463,345.1,462.3,344.6,461.5,344.1z"/>
	<path id="XMLID_326_" class="st5" d="M546.3,249.5c-2.8,1.6-4.3,2.9-5.9,3.2c-12.2,2.1-20.8,8.2-24,20.8c-0.3,1.2-2.4,1.9-3.7,2.9
		c-0.7-1.5-2.1-3-2-4.4c0.9-11.9,18.5-26.4,30.4-25.2C542.4,247,543.5,248.1,546.3,249.5z"/>
	<path id="XMLID_325_" class="st5" d="M530.1,339.4c-6.7-2.1-11.3-1.8-14,4.5c-0.4,1-2.9,1-4.4,1.5c-0.1-1.6-0.8-3.4-0.3-4.8
		c2.6-7.5,13.5-11.1,20.1-6.7c1,0.7,2.1,3,1.7,3.5C532.5,338.5,530.7,339,530.1,339.4z"/>
	<path id="XMLID_324_" class="st5" d="M558.1,350.7c5.3-3,9.8-5.6,14.4-7.9c0.3-0.1,2.9,2.7,2.6,3.6
		C573.6,352.5,564.7,355,558.1,350.7z"/>
</g>
</svg>
